<?xml version="1.0" standalone="no"?>
<!DOCTYPE svg PUBLIC "-//W3C//DTD SVG 20010904//EN"
 "http://www.w3.org/TR/2001/REC-SVG-20010904/DTD/svg10.dtd">
<svg version="1.0" xmlns="http://www.w3.org/2000/svg"
 width="297.000000pt" height="297.000000pt" viewBox="0 0 297.000000 297.000000"
 preserveAspectRatio="xMidYMid meet">
<metadata>
Created by potrace 1.11, written by Peter Selinger 2001-2013
</metadata>
<g transform="translate(0.000000,297.000000) scale(0.100000,-0.100000)"
fill="#000000" stroke="none">
<path d="M404 2033 c-77 -45 -93 -69 -133 -208 -18 -60 -45 -153 -61 -205 -70
-228 -190 -646 -190 -662 0 -15 13 -17 127 -17 159 1 180 5 197 38 7 14 37
116 65 226 29 110 58 220 66 245 7 25 16 63 20 85 10 67 19 72 47 23 37 -62
66 -116 143 -263 165 -317 177 -334 250 -358 51 -18 131 -15 171 6 49 26 79
66 152 207 39 74 91 173 116 220 26 47 62 118 82 158 31 63 52 88 55 65 2 -20
11 -62 25 -117 9 -34 18 -71 20 -84 19 -102 96 -243 169 -310 81 -74 239 -131
405 -148 68 -7 806 -12 827 -6 16 5 -187 280 -212 287 -11 3 -162 7 -335 9
-274 2 -321 5 -363 20 -56 21 -125 85 -151 140 -19 41 -24 58 -112 361 -70
244 -94 281 -197 300 -65 12 -121 -2 -166 -43 -41 -38 -147 -216 -333 -559
-23 -43 -49 -90 -58 -105 l-16 -26 -114 206 c-63 113 -129 232 -147 264 -68
123 -114 195 -141 220 -52 49 -151 63 -208 31z"/>
<path d="M2085 2018 c-115 -11 -272 -59 -282 -84 -4 -11 48 -208 79 -299 l10
-30 43 40 c62 59 68 62 137 86 57 20 87 22 318 24 140 2 278 4 306 4 l51 1
101 127 c55 71 99 129 97 131 -6 7 -796 7 -860 0z"/>
</g>
</svg>
